<svg width="272" height="73" viewBox="0 0 272 73" fill="none" xmlns="http://www.w3.org/2000/svg">
<path d="M24.2303 57.313V48.1145C21.3885 47.5162 18.9954 46.0953 17.051 43.8517C15.2561 41.6082 13.91 38.7664 13.0126 35.3263C12.2647 32.0357 11.8908 28.3713 11.8908 24.3329H21.9868V1H0V21.865C0 30.54 1.27134 37.2707 3.81403 42.0569C6.35672 46.9927 9.49768 50.5824 13.2369 52.8259C16.9762 55.219 20.6406 56.7147 24.2303 57.313Z" fill="#2E482E"/>
<path d="M29.9907 15.1362V24.3347C32.8325 24.933 35.2256 26.3539 37.1701 28.5975C38.9649 30.841 40.311 33.6828 41.2084 37.1229C41.9563 40.4135 42.3302 44.0779 42.3302 48.1163H32.2342V71.4492H54.221V50.5842C54.221 41.9092 52.9497 35.1785 50.407 30.3923C47.8643 25.4565 44.7233 21.8668 40.9841 19.6233C37.2448 17.2302 33.5804 15.7345 29.9907 15.1362Z" fill="#2E482E"/>
<path d="M81.3933 71.4523V1.00368H126.524V11.7017H94.1553V30.8274H123.429V41.5254H94.1553V71.4523H81.3933Z" fill="#2E482E"/>
<path d="M201.101 36.228C201.101 43.8186 199.679 50.32 196.835 55.7321C194.015 61.1212 190.162 65.249 185.277 68.1156C180.416 70.9822 174.901 72.4154 168.732 72.4154C162.563 72.4154 157.036 70.9822 152.152 68.1156C147.29 65.2261 143.437 61.0868 140.594 55.6977C137.773 50.2856 136.362 43.7957 136.362 36.228C136.362 28.6373 137.773 22.1474 140.594 16.7583C143.437 11.3462 147.29 7.20692 152.152 4.34036C157.036 1.4738 162.563 0.0405197 168.732 0.0405197C174.901 0.0405197 180.416 1.4738 185.277 4.34036C190.162 7.20692 194.015 11.3462 196.835 16.7583C199.679 22.1474 201.101 28.6373 201.101 36.228ZM188.27 36.228C188.27 30.8847 187.433 26.3785 185.759 22.7093C184.108 19.0172 181.815 16.2309 178.879 14.3504C175.944 12.447 172.561 11.4953 168.732 11.4953C164.902 11.4953 161.519 12.447 158.584 14.3504C155.649 16.2309 153.344 19.0172 151.67 22.7093C150.019 26.3785 149.193 30.8847 149.193 36.228C149.193 41.5713 150.019 46.089 151.67 49.7811C153.344 53.4503 155.649 56.2366 158.584 58.14C161.519 60.0204 164.902 60.9607 168.732 60.9607C172.561 60.9607 175.944 60.0204 178.879 58.14C181.815 56.2366 184.108 53.4503 185.759 49.7811C187.433 46.089 188.27 41.5713 188.27 36.228Z" fill="#2E482E"/>
<path d="M237.039 71.4523H213.166V1.00368H237.521C244.515 1.00368 250.523 2.41403 255.545 5.23473C260.591 8.03249 264.466 12.0571 267.172 17.3087C269.878 22.5602 271.231 28.8437 271.231 36.1592C271.231 43.4976 269.867 49.804 267.138 55.0785C264.432 60.353 260.522 64.4005 255.408 67.2212C250.317 70.0419 244.194 71.4523 237.039 71.4523ZM225.928 60.4103H236.42C241.327 60.4103 245.421 59.5159 248.7 57.7272C251.979 55.9155 254.445 53.221 256.096 49.6435C257.747 46.0431 258.573 41.5483 258.573 36.1592C258.573 30.7701 257.747 26.2982 256.096 22.7437C254.445 19.1662 252.002 16.4946 248.769 14.7288C245.558 12.94 241.568 12.0457 236.798 12.0457H225.928V60.4103Z" fill="#2E482E"/>
</svg>
