<svg width="55" height="71" viewBox="0 0 55 71" fill="none" xmlns="http://www.w3.org/2000/svg">
<path d="M24.2303 56.313V47.1145C21.3885 46.5162 18.9954 45.0953 17.051 42.8517C15.2561 40.6082 13.91 37.7664 13.0126 34.3263C12.2647 31.0357 11.8908 27.3713 11.8908 23.3329H21.9868V3.8147e-06H0V20.865C0 29.54 1.27134 36.2707 3.81403 41.0569C6.35672 45.9927 9.49768 49.5824 13.2369 51.8259C16.9762 54.219 20.6406 55.7147 24.2303 56.313Z" fill="#2E482E"/>
<path d="M29.9907 14.1362V23.3347C32.8325 23.933 35.2256 25.3539 37.1701 27.5975C38.9649 29.841 40.311 32.6828 41.2084 36.1229C41.9563 39.4135 42.3302 43.0779 42.3302 47.1163H32.2342V70.4492H54.221V49.5842C54.221 40.9092 52.9497 34.1785 50.407 29.3923C47.8643 24.4565 44.7233 20.8668 40.9841 18.6233C37.2448 16.2302 33.5804 14.7345 29.9907 14.1362Z" fill="#2E482E"/>
</svg>
