<svg width="42" height="43" viewBox="0 0 42 43" fill="none" xmlns="http://www.w3.org/2000/svg">
<path fill-rule="evenodd" clip-rule="evenodd" d="M29.3887 11.6636C22.715 11.6636 17.3063 17.0207 17.3063 23.629C17.3063 30.2374 22.7157 35.5946 29.3887 35.5946C31.2973 35.5974 33.1792 35.1504 34.8789 34.2905L38.0848 35.3158L38.1628 31.854C40.2127 29.7098 41.4703 26.815 41.4703 23.629C41.4703 17.02 36.0609 11.6636 29.388 11.6636" fill="#2E482E"/>
<path fill-rule="evenodd" clip-rule="evenodd" d="M12.078 5.02141C18.7516 5.02141 24.1603 10.3785 24.1603 16.9868C24.1603 23.5951 18.7509 28.9522 12.078 28.9522C10.1693 28.9551 8.2874 28.5081 6.58768 27.6483L3.38107 28.6734L3.30315 25.2118C1.25307 23.0676 -0.00442505 20.1728 -0.00442505 16.9868C-0.00442505 10.3778 5.405 5.02141 12.078 5.02141" fill="#4A7C48"/>
<path fill-rule="evenodd" clip-rule="evenodd" d="M28.0204 25.2168H30.7289L29.3701 20.8847L28.0204 25.2168ZM31.4556 27.5334H27.2932L26.5666 29.867H23.3217L27.9435 17.3897H30.7968L35.4549 29.8685H32.1911L31.4556 27.5334Z" fill="white"/>
<path d="M14.4163 37.3169C9.10904 37.9337 6.38643 36.7316 4.92804 32.6783C4.75002 37.9377 8.96731 42.244 14.8468 41.5228L14.9897 42.9195L19.2382 38.6174L14.2718 35.9044L14.4163 37.3169Z" fill="#2E482E"/>
<path d="M29.5832 6.5224C34.8906 5.90647 37.6132 7.10785 39.0713 11.1612C39.2493 5.9017 35.0319 1.59545 29.1525 2.31648L29.0094 0.919724L24.761 5.22189L29.7273 7.93483L29.5832 6.5224Z" fill="#4A7C48"/>
<path d="M6.64246 22.9438V21.2645H8.79898C10.5666 21.2645 11.4504 20.3218 11.4504 18.4363V13.5753C11.4504 12.9861 11.586 12.4675 11.857 12.0197C12.128 11.5719 12.4992 11.2243 12.9706 10.9768C13.442 10.7176 13.9782 10.588 14.5792 10.588C15.4394 10.588 16.1406 10.8354 16.6827 11.3304C17.2365 11.8253 17.5134 12.4675 17.5134 13.2571C17.5134 14.0584 17.2247 14.7066 16.6473 15.2015C16.0699 15.6964 15.3157 15.9439 14.3847 15.9439H9.55906V13.8227H12.7585L12.9353 14.0879H14.3494C14.6322 14.0879 14.8561 14.0113 15.0211 13.8581C15.1861 13.7049 15.2685 13.4987 15.2685 13.2394C15.2685 13.0155 15.2037 12.8387 15.0741 12.7091C14.9563 12.5677 14.7913 12.497 14.5792 12.497C14.3553 12.497 14.1726 12.5795 14.0312 12.7445C13.8898 12.8977 13.8191 13.1039 13.8191 13.3631V15.2545L14.0842 15.4313V18.5247C14.0842 20.0448 13.6718 21.235 12.8469 22.0953C12.022 22.9555 10.873 23.3857 9.39997 23.3857H8.51615C8.22155 23.3857 7.8857 23.3444 7.5086 23.2619C7.1315 23.1677 6.84279 23.0616 6.64246 22.9438Z" fill="white"/>
</svg>
